<svg width="32" height="32" viewBox="0 0 32 32" fill="none" xmlns="http://www.w3.org/2000/svg">
<path d="M18.5 13.2606C14 13.2606 11 17.0214 11 17.0214C11 17.0214 13 16.033 14 16.9454C15 17.8579 10 28 14 28C18 28 21 23.4085 21 23.4085C21 23.4085 18.5 24.3165 17 24.3151C15.5 24.3138 22 13.2606 18.5 13.2606Z" fill="white"/>
<path d="M19.5 5.1596C18.1569 4.53438 16.3644 5.87255 16 6.98449C15.6463 8.06395 15.9512 9.64975 17 10C18.0488 10.3502 19.3314 9.67347 20 8.80938C20.9084 7.63545 20.8431 5.78483 19.5 5.1596Z" fill="white"/>
</svg>
